<?xml version="1.0" encoding="UTF-8" standalone="no"?>
<svg
   xmlns:dc="http://purl.org/dc/elements/1.1/"
   xmlns:cc="http://creativecommons.org/ns#"
   xmlns:rdf="http://www.w3.org/1999/02/22-rdf-syntax-ns#"
   xmlns:svg="http://www.w3.org/2000/svg"
   xmlns="http://www.w3.org/2000/svg"
   class="panel"
   width="64"
   height="256"
   viewBox="0 0 64 256"
   version="1.1"
   id="modes">
  <metadata
     id="metadata932">
    <rdf:RDF>
      <cc:Work
         rdf:about="">
        <dc:format>image/svg+xml</dc:format>
        <dc:type
           rdf:resource="http://purl.org/dc/dcmitype/StillImage" />
        <dc:title></dc:title>
      </cc:Work>
    </rdf:RDF>
  </metadata>
  <defs
     id="defs930" />
  <g
     data-down="{&quot;mode&quot;:&quot;draw&quot;}"
     id="draw">
    <path
       style="fill:none;stroke-width:6"
       stroke="var(--icon)"
       d="M 12,56 V 40 L 40,8 56,24 28,56 Z"
       id="path913" />
    <path
       fill="var(--fill)"
       d="M 0,0 V 64 H 64 V 0 Z M 39.853516,3.6113281 60.105469,23.863281 29.361328,59 H 12 9 V 38.873047 Z M 40.146484,12.388672 15,41.126953 V 53 H 26.638672 L 51.894531,24.136719 Z"
       id="path915" />
  </g>
  <g
     data-up="{&quot;mode&quot;:&quot;draw&quot;}"
     data-down="{&quot;mode&quot;:&quot;erase&quot;}"
     id="erase">
    <path
       id="path823"
       fill="var(--icon)"
       d="m 36,72 -28,28 16,16 h 8 L 56,92 Z m -12,20 12,12 -8,8 -12,-12 z" />
    <path
       id="path825"
       fill="var(--fill)"
       d="m 0,64 v 64 H 64 V 64 Z m 36,8 20,20 -24,24 H 24 L 8,100 Z m -12,20 -8,8 12,12 8,-8 z" />
  </g>
  <g
     data-up="{&quot;mode&quot;:&quot;draw&quot;}"
     data-down="{&quot;mode&quot;:&quot;move&quot;}"
     id="move">
    <path
       id="path828"
       fill="var(--icon)"
       d="m 32,136 -24,24 24,24 24,-24 z m -8,16 h 16 v 16 H 24 Z" />
    <path
       id="path830"
       fill="var(--fill)"
       d="m 0,128 v 64 h 64 v -64 z m 32,8 24,24 -24,24 -24,-24 z m -8,16 v 16 h 16 v -16 z" />
  </g>
  <g
     data-up="{&quot;mode&quot;:&quot;draw&quot;}"
     data-down="{&quot;mode&quot;:&quot;zoom&quot;}"
     id="zoom">
    <path
       id="path833"
       style="fill:none;stroke-width:6"
       stroke="var(--icon)"
       d="m 32,200 16,16 -12,24 -4,4 -4,-4 -12,-24 z" />
    <path
       id="path835"
       fill="var(--fill)"
       d="m 0,192 v 64 H 64 V 192 Z M 32,195.75781 51.650391,215.4082 38.464844,241.77734 32,248.24219 25.535156,241.77734 12.349609,215.4082 29.878906,197.87891 Z m 0,8.48438 L 19.650391,216.5918 30.464844,238.22266 32,239.75781 33.535156,238.22266 44.349609,216.5918 Z" />
  </g>
</svg>
